PathFileType	4	(X/Y/Z)	8_2_70_p0_0-462_filt_butterworth.trc
DataRate	CameraRate	NumFrames	NumMarkers	Units	OrigDataRate	OrigDataStartFrame	OrigNumFrames
60.0	60.0	5	27	m	60.0	346	462
Frame#	Time	RHip			RKnee			RAnkle			RBigToe			RSmallToe			RHeel			LHip			LKnee			LAnkle			LBigToe			LSmallToe			LHeel			Neck			Head			Nose			RShoulder			RElbow			RWrist			RThumb			RIndex			RPinky			LShoulder			LElbow			LWrist			LThumb			LIndex			LPinky			
		X1	Y1	Z1	X2	Y2	Z2	X3	Y3	Z3	X4	Y4	Z4	X5	Y5	Z5	X6	Y6	Z6	X7	Y7	Z7	X8	Y8	Z8	X9	Y9	Z9	X10	Y10	Z10	X11	Y11	Z11	X12	Y12	Z12	X13	Y13	Z13	X14	Y14	Z14	X15	Y15	Z15	X16	Y16	Z16	X17	Y17	Z17	X18	Y18	Z18	X19	Y19	Z19	X20	Y20	Z20	X21	Y21	Z21	X22	Y22	Z22	X23	Y23	Z23	X24	Y24	Z24	X25	Y25	Z25	X26	Y26	Z26	X27	Y27	Z27	
346	5.766666666666667	0.19460474156260368	0.6102923099411067	0.8251497050328555	0.2264564858088305	0.6393782787136012	1.2547781685229176	0.2660659146085469	0.8416582522438733	1.67369279495438	0.2141407403476292	0.6642772936121372	1.7580579161580094	0.2785624157755769	0.7187674631238312	1.7688239513747286	0.24102789164880717	0.9549181370179622	1.738620303489851	-0.01382806262434715	0.6272620195768501	0.8384155195075305	0.019194154325808722	0.7560928860961	1.2706056142333682	0.05294762287988983	0.9064986958678606	1.7110120344785482	0.032165160719544915	0.72405246998382	1.777268109447553	-0.009745339982197163	0.731797397363651	1.748919648384038	0.06671258978945234	1.00354543649666	1.7699771283570618	0.04121019253336581	0.4903003542828588	0.2193640225594551	0.04324716239106685	0.37210481119793576	-0.015551442985212292	0.03403558683163807	0.34604039481510623	0.14364244955220196	0.20855253074561286	0.5699942170149834	0.2887371473200031	0.27365833956141555	0.588552556473063	0.5549497980953328	0.28918242346906664	0.5562283934524977	0.8029443868824698	0.2506179416782773	0.43535379054349355	0.8951387395475982	0.26725364841274235	0.4295112500256061	0.913064750534524	0.2919932326482456	0.5394656950166344	0.9203302873038518	-0.12121335641317424	0.5467858332718367	0.3374367082829999	-0.13110485415436735	0.6320333026473102	0.6265999209812584	-0.07981057017563215	0.5612802141957309	0.8808013749977781	-0.021202106212202344	0.5075718046378908	0.959995738481535	-0.033855780303308894	0.5125738607964967	1.0037610555896075	-0.07527146929097409	0.5685907369889337	1.0050838440494838
347	5.783333333333333	0.19459642680487005	0.6100037948484521	0.825317250314349	0.22500861583349327	0.6443363926726903	1.2548985104522723	0.2663127740500097	0.842407822487242	1.675242719017322	0.21226560762187616	0.6588626335718624	1.7568419774359305	0.2771267036615463	0.7137049508526865	1.7684258278331533	0.2412741824521452	0.9547313240522816	1.7408429348120533	-0.013347840312940597	0.6287953093609097	0.8386545009234314	0.017917768494623697	0.7601040140276301	1.270766894255094	0.05412152863831132	0.9098370133570393	1.710308223899476	0.029236272945229645	0.7248265465307493	1.776250798955598	-0.009845622502462837	0.7322409908249408	1.748973977661711	0.06870145811326232	0.9985203496098675	1.7684227906318777	0.04187984514129039	0.49368851181463386	0.21825555600432797	0.04353614753949846	0.3732588465314586	-0.01655081349017069	0.03456135382216262	0.34570076816308226	0.14374975697685768	0.20841316247720423	0.5703792128560552	0.289271574318336	0.27405510997144944	0.5821739670279281	0.5566157286659676	0.2873305022969976	0.5646443424282902	0.808100924317915	0.2464298057747327	0.44978164085244166	0.9043407254875035	0.2670731814908052	0.4421609288725145	0.9276100769023418	0.28961113904601876	0.557350736057331	0.9310018648435465	-0.11985846107713899	0.548556843121578	0.3351241706781185	-0.13077261564885823	0.6322082306091098	0.6278872059069326	-0.0801175959434863	0.5642626794185959	0.8812758917610921	-0.023612554891455282	0.51496683468939	0.9629924951750017	-0.03785674959994868	0.5244642463265472	1.006477003754872	-0.07713150337854091	0.5708197849185783	1.0057921295457524
348	5.8	0.19453667313670522	0.6097870567824285	0.8253111194972047	0.2239358202684989	0.647746562296179	1.2543455566189403	0.2665856779928679	0.8432661384989113	1.6771690107884312	0.2100031907708474	0.6522688955270055	1.7551354109890898	0.2756003029706417	0.7087186380137285	1.7671828920772463	0.24130941928818878	0.954581458227296	1.7424337524727962	-0.012392557770094742	0.6323958056431537	0.83917305545672	0.017620726108327107	0.7614429013794156	1.2707510213983126	0.055754963062687485	0.9150297124936575	1.70977574774571	0.027331555089899918	0.7251812677553532	1.77558432248211	-0.01041836351277329	0.7343592959303852	1.7492041872948418	0.07018927286136709	0.9958962385487528	1.7665414376213304	0.04224507732788964	0.4949103502673643	0.217657693065599	0.044173230745331596	0.37617716670524726	-0.01751336268292887	0.03560935771847157	0.3453177286745549	0.143845535091282	0.20832867869525568	0.5705438756513671	0.2896293752010135	0.27440674689093975	0.5797211627790969	0.5588470213567913	0.2856670406298771	0.5719330536612311	0.8134055949487636	0.24038664016827307	0.4673060191777425	0.9146927986985716	0.26567036979323955	0.4572197576425294	0.940846657988283	0.28759442038677135	0.5723815032551697	0.9411492314200597	-0.11863605775081518	0.5513742053493904	0.3335651484597221	-0.12979486568805954	0.6330867746123928	0.6289124987486406	-0.07996897823549806	0.5690445699114761	0.8825476023864547	-0.027457798841936255	0.525946325046906	0.96718474463327	-0.0437328499986576	0.5423097192785391	1.0103559978013612	-0.07873967852530607	0.5764939812789757	1.0068248386141103
349	5.816666666666666	0.1945093529320157	0.6097116562537063	0.824926381567159	0.22351890087787762	0.6482889515772078	1.2522056590681103	0.2667827241038605	0.8439128821385605	1.678598404230419	0.20808440472979034	0.6462906349105818	1.753745487199658	0.274021025583978	0.7037684155728336	1.7646962056947215	0.24126754308980763	0.9544871456886561	1.7431878458486585	-0.01143359282233668	0.6371942999167806	0.8395709153604608	0.017929858906781827	0.7610841107660609	1.2705868491852026	0.05703103233965121	0.9195906196348415	1.7097318034406306	0.02667079700577508	0.7252060136688341	1.775060795443056	-0.011583738513601019	0.7383930882227887	1.7495765510420833	0.07082843136615796	0.9957491799153569	1.7655503217038588	0.04279783810758883	0.4936757861181665	0.21761050609936483	0.044991472204567715	0.38001183076614403	-0.018415611831289147	0.037036418506954334	0.3453601909837467	0.1438598644124767	0.2086548400523576	0.5692576429938406	0.2898083986797456	0.2753264105920185	0.5777362696150683	0.5614087767840984	0.2846399934783096	0.5773256393360185	0.8196905147052982	0.234573065775199	0.48539183021021787	0.9249046966480321	0.26249327221166896	0.47311479475717005	0.9513039893388722	0.28605986231559477	0.5824284501639423	0.9506467726185401	-0.11681118946658851	0.5532755694098584	0.33369896961767453	-0.12845949315882518	0.6340558551404855	0.6293752085995961	-0.08026670654715443	0.5766174499350951	0.8848940577851655	-0.03199634672679544	0.5384122826402915	0.9721727562926055	-0.04992757667551798	0.5610169874188562	1.014058863927052	-0.07987609888086843	0.5824325056964379	1.0076986864975899
350	5.833333333333333	0.1946222849226934	0.609563315471281	0.8239991578490842	0.223542988428324	0.6471815143794367	1.2492446887693336	0.26685264736865144	0.8441938037335887	1.6791717407878384	0.20699243627043112	0.6425125990156035	1.753068176949232	0.27251017432309466	0.6989025920153304	1.7618902812154997	0.24122924591100298	0.9544122575617433	1.7433286815014948	-0.01129345923066692	0.6420965428067901	0.8398192971372178	0.018291132806960583	0.7604357616313169	1.2704244459753402	0.05776616740677307	0.9222637580633094	1.7105641734533663	0.026679892551476764	0.7254984665016742	1.7746959720882374	-0.012719752022788819	0.7421330818549488	1.7498925169284307	0.07078199537494553	0.9970439261447963	1.7668332674284024	0.0439857689006576	0.490200919484586	0.2180484304689892	0.04571992084356215	0.38295400366330856	-0.01910410983319478	0.038651669971016385	0.3466297417293295	0.1436646105567977	0.2096306709923237	0.5657046260267009	0.29003472862315943	0.27660700044632747	0.5748135242505776	0.5639549018228316	0.284383314243547	0.5809440211531974	0.8264458931177974	0.2302232792940634	0.5020736055141721	0.9343961047377711	0.25760842439538595	0.4888066062081735	0.959577262321071	0.2852154905216676	0.5874391283415388	0.958728377936403	-0.1142614279675864	0.5529572830277324	0.3353798634889672	-0.1273919625437817	0.6346224942956651	0.6294335082481296	-0.08162662854091098	0.5847475399314422	0.8879895916783481	-0.03710809001845964	0.5516611740422097	0.9778409034118393	-0.05487739375190898	0.5752124656040914	1.0165161435261265	-0.0807369024632357	0.5869526193631807	1.0087399146409273
